<?xml version="1.0" encoding="UTF-8"?>
<svg xmlns="http://www.w3.org/2000/svg" version="1.1" width="100" height="100" viewBox="0 0 100 100"><rect x="0" y="0" width="100" height="100" fill="#ffffff"/><g transform="scale(2.041)"><g transform="translate(0,0)"><path fill-rule="evenodd" d="M9 0L9 1L8 1L8 2L9 2L9 3L8 3L8 4L10 4L10 5L8 5L8 7L9 7L9 6L10 6L10 8L6 8L6 9L5 9L5 8L0 8L0 11L1 11L1 13L2 13L2 12L3 12L3 10L4 10L4 13L3 13L3 14L2 14L2 15L0 15L0 17L1 17L1 16L2 16L2 17L3 17L3 16L4 16L4 15L3 15L3 14L6 14L6 15L7 15L7 16L5 16L5 17L4 17L4 18L1 18L1 19L0 19L0 20L1 20L1 19L2 19L2 20L3 20L3 19L4 19L4 20L5 20L5 19L4 19L4 18L5 18L5 17L7 17L7 16L8 16L8 17L9 17L9 18L10 18L10 17L11 17L11 18L12 18L12 19L11 19L11 21L14 21L14 23L13 23L13 22L10 22L10 21L9 21L9 20L6 20L6 21L7 21L7 22L2 22L2 21L0 21L0 25L1 25L1 26L0 26L0 28L2 28L2 29L1 29L1 30L2 30L2 29L3 29L3 28L4 28L4 30L3 30L3 31L1 31L1 32L2 32L2 33L0 33L0 34L2 34L2 35L1 35L1 36L3 36L3 34L2 34L2 33L4 33L4 32L6 32L6 33L5 33L5 34L4 34L4 36L5 36L5 37L4 37L4 38L5 38L5 39L7 39L7 38L9 38L9 37L10 37L10 38L11 38L11 39L12 39L12 40L13 40L13 39L14 39L14 40L15 40L15 41L10 41L10 40L9 40L9 39L8 39L8 40L6 40L6 41L8 41L8 43L9 43L9 44L8 44L8 49L9 49L9 48L10 48L10 47L9 47L9 46L12 46L12 45L13 45L13 44L15 44L15 45L21 45L21 47L20 47L20 46L17 46L17 47L18 47L18 49L19 49L19 48L20 48L20 49L21 49L21 47L23 47L23 49L27 49L27 48L26 48L26 47L27 47L27 46L28 46L28 45L27 45L27 44L28 44L28 43L27 43L27 39L28 39L28 40L29 40L29 42L31 42L31 43L30 43L30 44L31 44L31 43L32 43L32 44L33 44L33 45L35 45L35 46L33 46L33 47L32 47L32 45L29 45L29 47L28 47L28 48L29 48L29 49L30 49L30 46L31 46L31 48L34 48L34 49L37 49L37 48L38 48L38 49L40 49L40 48L44 48L44 46L46 46L46 45L47 45L47 46L48 46L48 45L49 45L49 42L48 42L48 40L44 40L44 39L43 39L43 38L42 38L42 37L47 37L47 36L46 36L46 35L48 35L48 36L49 36L49 34L47 34L47 32L44 32L44 33L43 33L43 32L42 32L42 31L43 31L43 30L44 30L44 31L48 31L48 32L49 32L49 30L48 30L48 29L49 29L49 28L46 28L46 27L47 27L47 26L48 26L48 27L49 27L49 26L48 26L48 25L49 25L49 22L48 22L48 21L47 21L47 20L46 20L46 19L47 19L47 18L48 18L48 20L49 20L49 18L48 18L48 17L49 17L49 14L48 14L48 13L49 13L49 12L48 12L48 11L49 11L49 10L48 10L48 8L47 8L47 10L48 10L48 11L47 11L47 12L46 12L46 13L47 13L47 14L46 14L46 15L48 15L48 16L45 16L45 14L44 14L44 12L45 12L45 11L46 11L46 8L45 8L45 11L44 11L44 12L43 12L43 13L42 13L42 14L44 14L44 15L41 15L41 14L40 14L40 15L39 15L39 14L38 14L38 13L37 13L37 12L38 12L38 11L39 11L39 13L41 13L41 12L42 12L42 11L41 11L41 10L40 10L40 11L39 11L39 10L38 10L38 9L39 9L39 8L38 8L38 7L39 7L39 5L38 5L38 3L36 3L36 2L39 2L39 4L40 4L40 3L41 3L41 0L40 0L40 1L34 1L34 2L32 2L32 1L33 1L33 0L32 0L32 1L31 1L31 0L27 0L27 1L26 1L26 0L25 0L25 1L24 1L24 2L25 2L25 3L23 3L23 1L22 1L22 0L21 0L21 1L22 1L22 3L23 3L23 4L21 4L21 3L20 3L20 2L19 2L19 1L18 1L18 0L17 0L17 1L16 1L16 2L19 2L19 3L15 3L15 0L14 0L14 1L13 1L13 0L12 0L12 2L9 2L9 1L11 1L11 0ZM25 1L25 2L26 2L26 3L27 3L27 5L29 5L29 7L30 7L30 6L31 6L31 9L33 9L33 10L30 10L30 11L29 11L29 12L28 12L28 10L29 10L29 8L28 8L28 6L27 6L27 9L26 9L26 10L25 10L25 9L24 9L24 12L23 12L23 9L22 9L22 10L21 10L21 9L16 9L16 8L17 8L17 7L18 7L18 5L21 5L21 8L22 8L22 5L21 5L21 4L20 4L20 3L19 3L19 4L18 4L18 5L17 5L17 4L15 4L15 3L14 3L14 2L13 2L13 3L12 3L12 4L15 4L15 5L14 5L14 6L13 6L13 7L12 7L12 6L11 6L11 8L13 8L13 7L14 7L14 9L10 9L10 10L8 10L8 9L6 9L6 10L5 10L5 11L6 11L6 12L7 12L7 11L8 11L8 13L6 13L6 14L8 14L8 13L10 13L10 15L11 15L11 17L12 17L12 18L13 18L13 20L14 20L14 21L15 21L15 23L14 23L14 24L13 24L13 23L11 23L11 24L9 24L9 25L10 25L10 26L12 26L12 27L11 27L11 28L12 28L12 29L11 29L11 30L12 30L12 31L10 31L10 29L9 29L9 30L8 30L8 28L7 28L7 27L5 27L5 29L6 29L6 30L4 30L4 31L6 31L6 32L8 32L8 31L10 31L10 35L11 35L11 34L12 34L12 35L13 35L13 36L14 36L14 37L13 37L13 38L14 38L14 39L15 39L15 40L16 40L16 39L17 39L17 38L19 38L19 37L16 37L16 36L17 36L17 33L18 33L18 36L21 36L21 35L22 35L22 34L21 34L21 33L20 33L20 30L21 30L21 32L22 32L22 33L25 33L25 32L22 32L22 31L24 31L24 30L21 30L21 29L20 29L20 28L21 28L21 27L22 27L22 28L23 28L23 29L25 29L25 28L26 28L26 30L25 30L25 31L27 31L27 30L28 30L28 31L30 31L30 33L32 33L32 34L30 34L30 35L29 35L29 34L28 34L28 35L29 35L29 36L26 36L26 35L27 35L27 34L25 34L25 35L24 35L24 34L23 34L23 36L24 36L24 37L25 37L25 39L27 39L27 38L28 38L28 39L29 39L29 40L30 40L30 41L32 41L32 42L35 42L35 41L33 41L33 40L30 40L30 39L31 39L31 38L32 38L32 37L33 37L33 39L34 39L34 40L35 40L35 39L34 39L34 38L36 38L36 39L38 39L38 38L39 38L39 36L40 36L40 37L41 37L41 36L43 36L43 35L44 35L44 36L45 36L45 35L46 35L46 33L44 33L44 34L43 34L43 33L42 33L42 32L40 32L40 31L42 31L42 30L43 30L43 29L44 29L44 30L47 30L47 29L44 29L44 28L43 28L43 27L40 27L40 26L39 26L39 25L40 25L40 24L39 24L39 23L40 23L40 22L41 22L41 21L43 21L43 20L44 20L44 22L46 22L46 23L45 23L45 24L48 24L48 23L47 23L47 21L46 21L46 20L44 20L44 19L46 19L46 18L47 18L47 17L46 17L46 18L45 18L45 16L43 16L43 17L44 17L44 19L43 19L43 18L42 18L42 17L40 17L40 16L41 16L41 15L40 15L40 16L39 16L39 15L38 15L38 14L37 14L37 16L39 16L39 17L38 17L38 22L39 22L39 23L36 23L36 22L35 22L35 21L34 21L34 20L35 20L35 19L34 19L34 18L35 18L35 16L36 16L36 15L35 15L35 12L37 12L37 11L35 11L35 12L32 12L32 11L33 11L33 10L36 10L36 8L37 8L37 7L38 7L38 6L37 6L37 7L36 7L36 6L35 6L35 9L33 9L33 8L32 8L32 6L33 6L33 7L34 7L34 5L35 5L35 4L33 4L33 3L32 3L32 4L31 4L31 3L30 3L30 2L31 2L31 1L30 1L30 2L26 2L26 1ZM34 2L34 3L35 3L35 2ZM10 3L10 4L11 4L11 3ZM29 3L29 5L31 5L31 6L32 6L32 5L33 5L33 4L32 4L32 5L31 5L31 4L30 4L30 3ZM16 5L16 7L17 7L17 5ZM23 5L23 8L26 8L26 5ZM14 6L14 7L15 7L15 6ZM19 6L19 7L20 7L20 6ZM24 6L24 7L25 7L25 6ZM40 6L40 7L41 7L41 6ZM41 8L41 9L42 9L42 10L44 10L44 8L43 8L43 9L42 9L42 8ZM1 9L1 10L3 10L3 9ZM14 9L14 10L11 10L11 11L13 11L13 12L12 12L12 13L11 13L11 12L10 12L10 13L11 13L11 15L13 15L13 16L12 16L12 17L13 17L13 18L14 18L14 20L15 20L15 21L19 21L19 22L17 22L17 24L16 24L16 23L15 23L15 24L16 24L16 25L12 25L12 24L11 24L11 25L12 25L12 26L16 26L16 27L15 27L15 29L14 29L14 27L12 27L12 28L13 28L13 29L12 29L12 30L13 30L13 31L12 31L12 32L13 32L13 33L14 33L14 34L13 34L13 35L15 35L15 36L16 36L16 35L15 35L15 34L16 34L16 33L17 33L17 32L18 32L18 33L19 33L19 35L21 35L21 34L20 34L20 33L19 33L19 30L20 30L20 29L19 29L19 27L18 27L18 25L22 25L22 27L23 27L23 28L25 28L25 27L26 27L26 28L27 28L27 27L28 27L28 28L29 28L29 29L28 29L28 30L31 30L31 32L34 32L34 33L35 33L35 34L34 34L34 37L35 37L35 34L36 34L36 35L37 35L37 36L36 36L36 37L37 37L37 36L38 36L38 35L39 35L39 34L38 34L38 31L40 31L40 30L41 30L41 29L40 29L40 28L36 28L36 27L39 27L39 26L36 26L36 25L38 25L38 24L36 24L36 23L35 23L35 22L33 22L33 21L31 21L31 20L34 20L34 19L29 19L29 20L30 20L30 22L29 22L29 23L27 23L27 22L28 22L28 21L27 21L27 22L26 22L26 21L25 21L25 20L27 20L27 18L26 18L26 19L25 19L25 20L24 20L24 18L25 18L25 14L26 14L26 15L28 15L28 16L26 16L26 17L28 17L28 16L30 16L30 17L29 17L29 18L31 18L31 16L34 16L34 15L33 15L33 13L31 13L31 12L29 12L29 13L28 13L28 12L27 12L27 14L26 14L26 12L24 12L24 13L23 13L23 12L22 12L22 11L21 11L21 12L20 12L20 13L19 13L19 11L20 11L20 10L17 10L17 12L15 12L15 13L14 13L14 11L16 11L16 9ZM6 10L6 11L7 11L7 10ZM26 10L26 11L27 11L27 10ZM40 11L40 12L41 12L41 11ZM21 12L21 13L20 13L20 14L19 14L19 13L18 13L18 14L17 14L17 13L15 13L15 14L14 14L14 16L13 16L13 17L15 17L15 18L16 18L16 20L18 20L18 19L17 19L17 17L18 17L18 18L19 18L19 21L20 21L20 23L18 23L18 24L17 24L17 25L16 25L16 26L17 26L17 25L18 25L18 24L21 24L21 22L25 22L25 21L24 21L24 20L23 20L23 18L21 18L21 17L18 17L18 16L17 16L17 17L15 17L15 15L18 15L18 14L19 14L19 15L21 15L21 16L23 16L23 13L22 13L22 12ZM47 12L47 13L48 13L48 12ZM12 13L12 14L13 14L13 13ZM24 13L24 14L25 14L25 13ZM28 14L28 15L31 15L31 14ZM8 15L8 16L9 16L9 15ZM36 17L36 18L37 18L37 17ZM6 18L6 19L8 19L8 18ZM40 18L40 19L41 19L41 20L40 20L40 21L41 21L41 20L42 20L42 18ZM21 19L21 20L20 20L20 21L21 21L21 20L22 20L22 21L23 21L23 20L22 20L22 19ZM36 19L36 20L37 20L37 19ZM8 21L8 22L9 22L9 21ZM30 22L30 24L31 24L31 25L33 25L33 26L31 26L31 27L30 27L30 28L32 28L32 29L31 29L31 30L32 30L32 31L33 31L33 30L35 30L35 29L34 29L34 28L35 28L35 27L36 27L36 26L35 26L35 25L33 25L33 24L31 24L31 22ZM2 23L2 24L3 24L3 25L4 25L4 23ZM5 23L5 26L8 26L8 23ZM23 23L23 26L26 26L26 23ZM34 23L34 24L35 24L35 23ZM41 23L41 26L44 26L44 23ZM6 24L6 25L7 25L7 24ZM24 24L24 25L25 25L25 24ZM27 24L27 26L28 26L28 27L29 27L29 26L28 26L28 25L29 25L29 24ZM42 24L42 25L43 25L43 24ZM1 26L1 27L2 27L2 28L3 28L3 27L2 27L2 26ZM20 26L20 27L21 27L21 26ZM34 26L34 27L32 27L32 28L34 28L34 27L35 27L35 26ZM16 27L16 28L17 28L17 27ZM6 28L6 29L7 29L7 28ZM42 28L42 29L43 29L43 28ZM13 29L13 30L14 30L14 31L15 31L15 30L16 30L16 32L14 32L14 33L16 33L16 32L17 32L17 31L18 31L18 30L17 30L17 29L15 29L15 30L14 30L14 29ZM36 29L36 31L37 31L37 29ZM38 29L38 30L39 30L39 29ZM6 30L6 31L7 31L7 30ZM34 31L34 32L35 32L35 31ZM27 32L27 33L29 33L29 32ZM39 32L39 33L40 33L40 34L41 34L41 35L40 35L40 36L41 36L41 35L43 35L43 34L42 34L42 33L40 33L40 32ZM6 33L6 34L8 34L8 35L6 35L6 36L7 36L7 37L6 37L6 38L7 38L7 37L9 37L9 36L8 36L8 35L9 35L9 33ZM37 34L37 35L38 35L38 34ZM30 35L30 36L29 36L29 37L30 37L30 38L29 38L29 39L30 39L30 38L31 38L31 37L32 37L32 36L33 36L33 35L32 35L32 36L31 36L31 35ZM10 36L10 37L11 37L11 38L12 38L12 37L11 37L11 36ZM30 36L30 37L31 37L31 36ZM0 37L0 38L1 38L1 40L0 40L0 41L3 41L3 40L4 40L4 39L2 39L2 38L1 38L1 37ZM14 37L14 38L15 38L15 37ZM20 37L20 39L23 39L23 38L21 38L21 37ZM26 37L26 38L27 38L27 37ZM40 38L40 39L39 39L39 40L40 40L40 39L42 39L42 40L43 40L43 39L42 39L42 38ZM45 38L45 39L46 39L46 38ZM47 38L47 39L49 39L49 38ZM18 39L18 40L19 40L19 39ZM21 40L21 41L15 41L15 43L18 43L18 44L21 44L21 45L22 45L22 44L21 44L21 43L22 43L22 42L21 42L21 41L22 41L22 40ZM37 40L37 41L38 41L38 43L39 43L39 42L40 42L40 41L38 41L38 40ZM9 41L9 42L10 42L10 41ZM23 41L23 44L26 44L26 41ZM41 41L41 44L44 44L44 41ZM45 41L45 44L47 44L47 45L48 45L48 44L47 44L47 43L48 43L48 42L47 42L47 43L46 43L46 41ZM11 42L11 43L10 43L10 44L11 44L11 45L12 45L12 44L11 44L11 43L12 43L12 42ZM18 42L18 43L20 43L20 42ZM24 42L24 43L25 43L25 42ZM42 42L42 43L43 43L43 42ZM34 43L34 44L37 44L37 45L36 45L36 46L35 46L35 47L34 47L34 48L35 48L35 47L36 47L36 46L37 46L37 47L38 47L38 48L39 48L39 47L38 47L38 46L40 46L40 47L42 47L42 46L44 46L44 45L41 45L41 46L40 46L40 44L39 44L39 45L38 45L38 44L37 44L37 43ZM24 45L24 46L23 46L23 47L24 47L24 48L25 48L25 47L26 47L26 46L27 46L27 45L26 45L26 46L25 46L25 45ZM37 45L37 46L38 46L38 45ZM13 46L13 47L14 47L14 48L16 48L16 49L17 49L17 48L16 48L16 47L14 47L14 46ZM24 46L24 47L25 47L25 46ZM11 47L11 49L12 49L12 47ZM45 47L45 48L46 48L46 49L49 49L49 47L48 47L48 48L46 48L46 47ZM0 0L0 7L7 7L7 0ZM1 1L1 6L6 6L6 1ZM2 2L2 5L5 5L5 2ZM42 0L42 7L49 7L49 0ZM43 1L43 6L48 6L48 1ZM44 2L44 5L47 5L47 2ZM0 42L0 49L7 49L7 42ZM1 43L1 48L6 48L6 43ZM2 44L2 47L5 47L5 44Z" fill="#000000"/></g></g></svg>
